# xmcd
#
# Track frame offsets: 
#        150
#        36312
#        57320
#        87487
#        109860
#        115830
#        135482
#        152302
#        188050
#        200435
#        209895
#        219977
#        231227
#
# Disc length: 3408 seconds
#
# Revision: 16
# Processed by: cddbd v1.5.2PL0 Copyright (c) Steve Scherf et al.
# Submitted via: ExactAudioCopyFreeDBPlugin 1.0
#
DISCID=ba0d4e0d
DTITLE=Art Of Noise - The Seduction Of Claude Debussy [CD#01)
DYEAR=1999
DGENRE=Electronic
TTITLE0=Il Pleure (At The Turn Of The Century)
TTITLE1=Born On A Sunday
TTITLE2=Dreaming In Colour
TTITLE3=On Being Blue
TTITLE4=Continued In Colour
TTITLE5=Rapt: In The Evening Air
TTITLE6=Metaforce
TTITLE7=The Holy Egoism Of Genius
TTITLE8=La Flûte De Pan
TTITLE9=Metaphor On The Floor
TTITLE10=Approximate Mood Swing No: 2
TTITLE11=Pause
TTITLE12=Out Of This World (Version 138)
EXTD=
EXTT0=
EXTT1=
EXTT2=
EXTT3=
EXTT4=
EXTT5=
EXTT6=
EXTT7=
EXTT8=
EXTT9=
EXTT10=
EXTT11=
EXTT12=
PLAYORDER=
